<svg width="204.49999999999997" height="51.7" xmlns="http://www.w3.org/2000/svg">
 <style type="text/css">.st0{fill:#FFFFFF;}</style>
 <defs>
  <filter id="svg_1_blur">
   <feGaussianBlur stdDeviation="0" in="SourceGraphic"/>
  </filter>
 </defs>
 <g>
  <title>background</title>
  <rect fill="none" id="canvas_background" height="402" width="582" y="-1" x="-1"/>
 </g>
 <g>
  <title>Layer 1</title>
  <g id="XMLID_79_">
   <g id="XMLID_95_">
    <path d="m42.833334,31.2c0,0 0,0 0,0l0,0c2.4,-3.7 3.9,-8.2 3.9,-13c0,-1.3 -0.1,-2.6 -0.3,-3.8c-0.3,-2.7 -2.3,-4 -3.8,-4c-2.1,0 -4,1.7 -3.5,5.4c0,0 0,0 0,0c0.1,0.8 0.2,1.7 0.2,2.5c-0.1,9 -7.6,16.3 -16.6,16.1c-8.8,-0.2 -16,-7.4 -16,-16.3c0,-4.2 1.6,-8.1 4.3,-11c0,0 0,0 0,0c0,0 2.1,-2 2.1,-3.4c0,-2 -1.7,-3.7 -3.8,-3.7c-0.9,0 -2,0.4 -2.9,1.3c0,0 0,0 0,0c-4.4,4.3 -7.1,10.3 -7.1,16.8c0,12.9 10.2,23.4 22.9,23.8c0,0 1.3,0 1.3,0c12.3,0.1 16.7,6.2 16.7,6.2c-2.2,-8.3 1,-14.4 2.2,-16.3c0.1,-0.2 0.3,-0.4 0.4,-0.6z" class="st0" id="XMLID_99_"/>
    <path d="m23.033334,8.5c-5.3,0 -9.6,4.3 -9.6,9.6s4.3,9.6 9.6,9.6s9.6,-4.3 9.6,-9.6s-4.3,-9.6 -9.6,-9.6zm3.2,10l-4.8,3.1c-0.2,0.1 -0.4,0 -0.4,-0.2l-0.1,-6.4c0,-0.2 0.2,-0.4 0.4,-0.2l4.9,3.2c0.2,0.1 0.2,0.4 0,0.5z" class="st0" id="XMLID_96_"/>
   </g>
   <g id="XMLID_80_">
    <text filter="url(#svg_1_blur)" font-style="normal" font-weight="normal" xml:space="preserve" text-anchor="start" font-family="'Courier New', Courier, monospace" font-size="26" id="svg_1" y="33.480681" x="48.083362" stroke-opacity="null" stroke-width="8" stroke="null" fill="#ffffff">BEATSMUSIC</text>
   </g>
  </g>
 </g>
</svg>